<svg width="15" height="16" viewBox="0 0 15 16" fill="none" xmlns="http://www.w3.org/2000/svg">
<path fill-rule="evenodd" clip-rule="evenodd" d="M8.68848 0.49292H1.93848C1.54065 0.49292 1.15912 0.650955 0.877816 0.93226C0.596512 1.21356 0.438477 1.5951 0.438477 1.99292V13.9929C0.438477 14.3907 0.596512 14.7723 0.877816 15.0536C1.15912 15.3349 1.54065 15.4929 1.93848 15.4929H8.68848C9.0863 15.4929 9.46783 15.3349 9.74914 15.0536C10.0304 14.7723 10.1885 14.3907 10.1885 13.9929V12.4929H8.68848V13.9929H1.93848V1.99292H8.68848V3.49292H10.1885V1.99292C10.1885 1.5951 10.0304 1.21356 9.74914 0.93226C9.46783 0.650955 9.0863 0.49292 8.68848 0.49292ZM10.5635 11.7429L9.50597 10.6854L11.441 8.74288H4.18847V7.24288H11.441L9.50597 5.30038L10.5635 4.24288L14.3135 7.99288L10.5635 11.7429Z" fill="white"/>
</svg>
