<svg width="19" height="19" viewBox="0 0 19 19" fill="none" xmlns="http://www.w3.org/2000/svg">
<path d="M9.43848 2.71453C9.74872 2.71453 10.0559 2.77563 10.3426 2.89436C10.6292 3.01309 10.8896 3.18711 11.109 3.40649C11.3284 3.62586 11.5024 3.88631 11.6211 4.17294C11.7399 4.45957 11.801 4.76678 11.801 5.07703C11.801 5.38727 11.7399 5.69448 11.6211 5.98112C11.5024 6.26775 11.3284 6.52819 11.109 6.74757C10.8896 6.96694 10.6292 7.14097 10.3426 7.25969C10.0559 7.37842 9.74872 7.43953 9.43848 7.43953C8.8119 7.43953 8.21099 7.19062 7.76794 6.74757C7.32488 6.30451 7.07598 5.7036 7.07598 5.07703C7.07598 4.45045 7.32488 3.84954 7.76794 3.40649C8.21099 2.96343 8.8119 2.71453 9.43848 2.71453ZM9.43848 12.8395C12.7797 12.8395 16.301 14.482 16.301 15.202V16.4395H2.57598V15.202C2.57598 14.482 6.09723 12.8395 9.43848 12.8395ZM9.43848 0.577026C6.95223 0.577026 4.93848 2.59078 4.93848 5.07703C4.93848 7.56328 6.95223 9.57703 9.43848 9.57703C11.9247 9.57703 13.9385 7.56328 13.9385 5.07703C13.9385 2.59078 11.9247 0.577026 9.43848 0.577026ZM9.43848 10.702C6.43473 10.702 0.438477 12.2095 0.438477 15.202V18.577H18.4385V15.202C18.4385 12.2095 12.4422 10.702 9.43848 10.702Z" fill="white"/>
</svg>
